<svg xmlns="http://www.w3.org/2000/svg" width="1200" height="44" viewBox="0 0 1200 44" role="img" aria-label="Proyectos destacados">
<g transform="translate(2,8) scale(1.0833333333333333)" fill="none" stroke="#5b4bd6" stroke-width="1.8" stroke-linecap="round" stroke-linejoin="round"><path d="M18 19a5 5 0 0 1-5-5v8" />
  <path d="M9 20H4a2 2 0 0 1-2-2V5a2 2 0 0 1 2-2h3.9a2 2 0 0 1 1.69.9l.81 1.2a2 2 0 0 0 1.67.9H20a2 2 0 0 1 2 2v5" />
  <circle cx="13" cy="12" r="2" />
  <circle cx="20" cy="19" r="2" /></g>
<text x="40" y="29" font-family="-apple-system,'Segoe UI',Helvetica,Arial,sans-serif" font-size="24" font-weight="700" fill="#1f2328">Proyectos destacados</text>
</svg>