<svg xmlns="http://www.w3.org/2000/svg" width="1200" height="44" viewBox="0 0 1200 44" role="img" aria-label="Stack">
<g transform="translate(2,8) scale(1.0833333333333333)" fill="none" stroke="#5b4bd6" stroke-width="1.8" stroke-linecap="round" stroke-linejoin="round"><path d="M12.83 2.18a2 2 0 0 0-1.66 0L2.6 6.08a1 1 0 0 0 0 1.83l8.58 3.91a2 2 0 0 0 1.66 0l8.58-3.9a1 1 0 0 0 0-1.83z" />
  <path d="M2 12a1 1 0 0 0 .58.91l8.6 3.91a2 2 0 0 0 1.65 0l8.58-3.9A1 1 0 0 0 22 12" />
  <path d="M2 17a1 1 0 0 0 .58.91l8.6 3.91a2 2 0 0 0 1.65 0l8.58-3.9A1 1 0 0 0 22 17" /></g>
<text x="40" y="29" font-family="-apple-system,'Segoe UI',Helvetica,Arial,sans-serif" font-size="24" font-weight="700" fill="#1f2328">Stack</text>
</svg>